/* XPM */
static char *_582298674545[] = {
/* columns rows colors chars-per-pixel */
"64 64 256 2 ",
"   c black",
".  c #0000A8",
"X  c #00A800",
"o  c #00A8A8",
"O  c #A80000",
"+  c #A800A8",
"@  c #A85400",
"#  c #4C4436",
"$  c gray33",
"%  c #5454FC",
"&  c #524A42",
"*  c #5E5246",
"=  c #736352",
"-  c #685D4C",
";  c #FCFC54",
":  c gray99",
">  c #ECECEC",
",  c gainsboro",
"<  c #D0D0D0",
"1  c #C0C0C0",
"2  c #B4B4B4",
"3  c gray66",
"4  c #989898",
"5  c gray55",
"6  c #7C7C7C",
"7  c gray44",
"8  c #646464",
"9  c gray33",
"0  c #484848",
"q  c gray22",
"w  c #2C2C2C",
"e  c #202020",
"r  c #FC0000",
"t  c #EC0000",
"y  c #E00000",
"u  c #D40000",
"i  c #C80000",
"p  c #BC0000",
"a  c #B00000",
"s  c #A40000",
"d  c #980000",
"f  c #880000",
"g  c #7C0000",
"h  c #700000",
"j  c #640000",
"k  c #580000",
"l  c #4C0000",
"z  c #400000",
"x  c #FCD8D8",
"c  c #FCB8B8",
"v  c #FC9C9C",
"b  c #FC7C7C",
"n  c #FC5C5C",
"m  c #FC4040",
"M  c #FC2020",
"N  c #FC0000",
"B  c #FCA85C",
"V  c #FC9840",
"C  c #FC8820",
"Z  c #FC7800",
"A  c #E46C00",
"S  c #CC6000",
"D  c #B45400",
"F  c #9C4C00",
"G  c #FCFCD8",
"H  c #FCFCB8",
"J  c #FCFC9C",
"K  c #FCFC7C",
"L  c #FCF85C",
"P  c #FCF440",
"I  c #FCF420",
"U  c #FCF400",
"Y  c #E4D800",
"T  c #CCC400",
"R  c #B4AC00",
"E  c #9C9C00",
"W  c #848400",
"Q  c #706C00",
"!  c #585400",
"~  c #404000",
"^  c #849C7B",
"/  c #738C6B",
"(  c #6B7B63",
")  c #637352",
"_  c #5A6B52",
"`  c #525A4A",
"'  c #4A5242",
"]  c #425239",
"[  c #394A39",
"{  c #313931",
"}  c #313929",
"|  c #293129",
" . c #293121",
".. c #212921",
"X. c #182118",
"o. c #181818",
"O. c #00FC00",
"+. c #00EC00",
"@. c #00E000",
"#. c #00D400",
"$. c #04C800",
"%. c #04BC00",
"&. c #04B000",
"*. c #04A400",
"=. c #049800",
"-. c #048800",
";. c #047C00",
":. c #047000",
">. c #046400",
",. c #045800",
"<. c #044C00",
"1. c #044000",
"2. c #C8BFB2",
"3. c #A89A85",
"4. c #9A8C77",
"5. c #7CFCF8",
"6. c #5CFCFC",
"7. c #40FCFC",
"8. c #20FCFC",
"9. c #00FCFC",
"0. c #00E4E4",
"q. c #00CCCC",
"w. c #00B4B4",
"e. c #009C9C",
"r. c #008484",
"t. c #007070",
"y. c #005858",
"u. c #004040",
"i. c #94846B",
"p. c #8C7B67",
"a. c #847B63",
"s. c #81735D",
"d. c #7B6B5A",
"f. c #007CCC",
"g. c #006CB4",
"h. c #005C9C",
"j. c #736B5A",
"k. c #736B52",
"l. c #9C9CFC",
"z. c #7C80FC",
"x. c #5C60FC",
"c. c #4040FC",
"v. c #2024FC",
"b. c #0004FC",
"n. c #0000FC",
"m. c #0000EC",
"M. c #0000E0",
"N. c #0000D4",
"B. c #0000C8",
"V. c #0000BC",
"C. c #0000B0",
"Z. c #0000A4",
"A. c #000098",
"S. c #000088",
"D. c #00007C",
"F. c #000070",
"G. c #000064",
"H. c #000058",
"J. c #00004C",
"K. c #000040",
"L. c #282828",
"P. c #FCE034",
"I. c #FCD424",
"U. c #FCCC18",
"Y. c #FCC008",
"T. c #FCB400",
"R. c #B420FC",
"E. c #A800FC",
"W. c #9800E4",
"Q. c #8000CC",
"!. c #7400B4",
"~. c #60009C",
"^. c #500084",
"/. c #440070",
"(. c #340058",
"). c #280040",
"_. c #FCD8FC",
"`. c #FCB8FC",
"'. c #FC9CFC",
"]. c #FC7CFC",
"[. c #FC5CFC",
"{. c #FC40FC",
"}. c #FC20FC",
"|. c #FC00FC",
" X c #E000E4",
".X c #C800CC",
"XX c #B400B4",
"oX c #9C009C",
"OX c #840084",
"+X c #6C0070",
"@X c #580058",
"#X c #400040",
"$X c #FCE8DC",
"%X c #FCE0D0",
"&X c #FCD8C4",
"*X c #FCD4BC",
"=X c #FCCCB0",
"-X c #FCC4A4",
";X c #FCBC9C",
":X c #FCB890",
">X c #FCB080",
",X c #FCA470",
"<X c #FC9C60",
"1X c #F0945C",
"2X c #E88C58",
"3X c #DC8854",
"4X c #D08050",
"5X c #C87C4C",
"6X c #BC7848",
"7X c #B47044",
"8X c #A86840",
"9X c #A0643C",
"0X c #9C6038",
"qX c #905C34",
"wX c #885830",
"eX c #80502C",
"rX c #744C28",
"tX c #6C4824",
"yX c #5C4020",
"uX c #543C1C",
"iX c #483818",
"pX c #403018",
"aX c #382C14",
"sX c #28200C",
"dX c #600064",
"fX c #006464",
"gX c #006060",
"hX c #00001C",
"jX c #00002C",
"kX c #302410",
"lX c #480048",
"zX c #500050",
"xX c #000034",
"cX c gray11",
"vX c #4C4C4C",
"bX c gray36",
"nX c gray25",
"mX c gray19",
"MX c #343434",
"NX c #2E2B22",
"BX c #B8E8E8",
"VX c #9CDCDC",
"CX c #74C8C8",
"ZX c #48C0C0",
"AX c #20B4B4",
"SX c #20B0B0",
"DX c #00A4A4",
"FX c #009898",
"GX c #008C8C",
"HX c #008484",
"JX c #007C7C",
"KX c #007878",
"LX c #007474",
"PX c #007070",
"IX c #006C6C",
"UX c #980088",
/* pixels */
"d.d.= d.a.s.d.= = a.s.p.p.- o.o.e L.q q 3.4.4.i.d.s.d.s.s.d.a.a.d.- - = = - = = = = = d.d.d.d.d.s.p.i.i.i.s.s.i.i.p.i.3.4.4.4.p.",
"p.s.d.d.a.s.= = s.p.p.p.- o.o.e L.q q 3.4.i.p.i.4.s.s.d.d.d.s.d.k.d.d.d.d.= = = d.k.d.s.s.d.d.d.s.s.s.p.p.p.p.i.p.i.i.4.4.4.i.s.",
"= = = = d.d.= = s.p.s.- o.o.e L.q q 3.i.a.p.4.i.s.d.s.s.d.s.d.d.d.d.= d.d.d.= d.p.s.d.d.s.p.s.k.s.a.s.p.s.s.s.s.p.4.i.4.3.3.i.s.",
"= = = - = = = s.p.p.- o.o.e L.q q 3.p.p.s.p.p.s.s.s.d.s.a.a.s.s.s.d.d.d.s.s.s.p.s.a.d.d.d.s.s.d.d.s.s.a.s.d.p.s.p.4.4.4.4.4.s.= ",
"- = d.= = = = d.s.- o.o.e o.o.L.q q 3.d.d.d.d.d.s.s.d.a.p.p.p.p.p.p.a.s.p.s.d.a.s.s.a.s.a.a.s.d.d.s.d.d.d.d.d.a.p.p.i.i.i.i.= = ",
"= = d.= - = = d.- o.o.e L.e o.o.L.q q 3.d.s.s.p.a.d.s.a.s.p.p.p.p.p.s.p.p.s.d.s.p.p.p.p.a.d.a.s.d.d.= d.d.d.d.s.s.p.4.4.4.i.d.= ",
"d.d.= = = = = - o.o.e L.q q e o.o.L.q q 3.p.s.p.p.s.d.d.p.i.p.p.p.s.a.p.p.d.d.p.p.p.p.a.d.k.s.s.d.d.d.d.d.d.d.d.d.a.4.4.4.i.p.d.",
"p.s.s.= = = - o.o.e L.q q - q e o.o.L.q q 3.a.p.p.s.s.s.p.i.p.i.p.s.s.p.p.d.s.s.p.p.a.d.d.d.s.d.d.d.d.s.d.d.s.a.d.p.i.4.4.i.i.s.",
"a.d.d.d.= - o.o.e L.q q 3.s.- q e o.o.L.q q 3.p.p.a.s.s.s.p.i.i.p.p.p.i.p.s.s.a.p.p.s.s.p.d.s.s.s.= = d.d.d.p.p.p.p.i.i.p.p.p.p.",
"s.d.d.d.- o.o.e L.q q 3.s.s.d.- q e o.o.L.q q 3.i.a.a.s.s.p.p.p.s.p.p.i.p.p.p.s.s.i.s.p.p.a.p.s.s.= s.= d.d.p.s.a.s.p.i.p.p.a.p.",
"s.d.d.- o.o.e L.q q 3.p.a.s.d.d.- q e o.o.L.q q 3.p.p.s.a.a.p.p.p.i.i.i.p.p.p.i.d.a.p.p.d.d.d.d.d.= d.= d.s.a.s.s.s.p.a.p.p.p.p.",
"d.= - o.o.e L.q q 3.p.s.p.p.s.s.d.- q e o.o.L.q q 3.p.p.s.p.p.s.i.i.i.i.i.p.s.s.d.s.s.p.a.d.s.= = = = = = d.s.s.s.s.p.a.d.d.a.s.",
"= - o.o.e L.q q 3.i.p.a.s.d.a.a.s.d.- q e o.o.L.q q 3.p.p.p.s.s.i.i.i.i.i.p.s.d.d.d.a.p.s.d.= = = = = = s.d.s.s.a.a.p.a.d.d.d.d.",
"- o.o.e L.q q 3.i.i.p.s.d.s.a.s.a.s.p.- q e o.o.L.q q 3.p.p.p.p.i.p.i.i.p.p.s.s.s.s.s.a.s.s.d.d.d.= = = d.d.s.d.d.a.s.s.d.d.= d.",
"o.o.e L.q q 3.i.i.i.s.d.s.a.p.p.s.p.p.p.- q e o.o.L.q q 3.s.p.a.i.i.i.p.p.i.s.= d.d.d.k.d.a.a.d.= - - = = d.s.d.s.a.s.p.s.s.d.- ",
"o.e L.q q 3.p.p.a.s.s.s.s.d.s.d.i.i.p.i.p.- q e o.o.L.q q 3.p.p.p.p.a.a.i.i.s.= d.= = = = d.s.= = = = d.= d.d.d.s.d.d.s.p.p.- e ",
"e L.q q 3.a.p.p.p.s.d.d.a.d.d.s.a.p.i.i.p.i.- q e o.o.L.q q 3.p.p.s.p.p.i.i.d.= d.= = - = = d.d.d.s.d.d.s.d.d.d.d.= s.p.i.- e o.",
"L.q q 3.4.i.i.p.s.s.a.a.s.d.d.d.a.p.p.i.i.i.4.- q e o.o.L.q q 3.p.s.a.p.i.i.s.d.s.d.d.d.= d.= d.d.d.d.= = - = = = = s.p.- e o.L.",
"q q 3.i.4.4.i.s.d.s.p.s.a.s.s.s.p.i.4.3.3.3.4.i.- q e o.o.L.q q 3.p.s.p.p.a.s.s.s.d.d.d.d.d.d.d.d.d.= = - - = - = = s.- e o.L.L.",
"q 3.a.i.i.i.d.= s.s.a.s.p.p.s.p.p.4.4.3.3.3.3.3.i.- q e o.o.L.q q 3.s.p.i.p.a.s.d.d.d.d.d.s.s.d.d.= = = = = - j.d.= - e o.L.L.q ",
"3.i.s.p.p.s.= = s.s.s.p.p.i.a.i.i.3.4.3.3.4.3.3.i.i.- q e o.o.L.q q 3.i.i.p.a.d.s.d.d.d.s.a.d.d.d.= = d.= = = = = - e o.L.L.q q ",
"i.a.a.p.s.d.d.s.s.s.p.p.i.i.i.i.4.4.4.4.3.3.3.3.3.3.4.- q e o.o.L.q q 3.i.p.s.s.d.= = d.s.a.s.d.d.d.= d.= = = = - e o.L.L.q q 3.",
"i.s.s.p.s.d.d.s.a.p.i.4.4.p.i.4.3.3.4.4.3.3.3.3.3.3.4.4.- q e o.o.L.q q 3.p.s.s.k.= d.d.d.d.d.d.= d.= = = d.= - e o.L.L.q q 3.4.",
"i.i.p.s.d.d.a.p.p.p.i.i.4.i.i.4.4.4.4.4.4.3.3.3.3.3.3.3.3.- q e o.o.L.q q 3.d.s.d.= d.d.d.d.d.d.d.d.d.= d.d.- e o.L.L.q q 3.4.4.",
"p.a.p.= = s.p.p.p.i.i.i.4.i.4.4.4.i.4.3.4.3.4.3.4.4.4.4.4.3.- q e o.o.L.q q 3.d.= = d.d.d.d.d.d.s.d.d.d.d.- e o.L.L.q q 3.a.i.i.",
"s.d.= = s.s.p.s.p.i.4.i.4.4.4.4.i.4.4.4.4.4.4.4.4.i.4.i.4.4.3.- q e o.o.L.q q 3.d.s.d.s.a.a.s.p.p.a.a.d.- e o.L.L.q q 3.a.s.p.p.",
"d.= d.d.p.s.p.p.p.i.4.4.i.4.i.a.p.4.4.4.i.i.i.p.i.p.i.i.p.i.4.p.- q e o.o.L.q q 3.d.= d.s.a.p.p.p.p.p.- e o.L.L.q q 3.a.d.= d.d.",
"= = d.d.s.s.p.i.p.p.p.i.p.i.i.p.a.i.i.i.i.i.i.p.p.p.p.p.s.p.p.s.a.- q e o.o.L.q q 3.d.s.s.s.i.p.a.p.- e o.L.L.q q 3.s.d.d.d.d.d.",
"d.= d.d.s.p.p.p.i.p.p.p.i.i.p.p.i.4.4.i.p.p.p.p.s.s.s.s.s.s.d.s.d.s.- q e o.o.L.q q 3.s.d.p.i.i.i.- e o.L.L.q q 3.= d.d.d.= d.= ",
"a.a.a.p.i.a.p.i.i.i.p.s.p.s.s.a.p.p.i.p.p.p.i.p.p.p.p.p.p.a.d.s.d.s.p.- q e o.o.L.q q 3.d.p.i.p.- e o.L.L.q q 3.d.d.= = s.= = - ",
"p.s.p.i.i.i.i.i.i.p.s.s.a.s.s.s.s.s.p.i.i.i.p.p.p.p.s.p.a.s.s.a.s.d.a.s.- q e o.o.L.q q 3.p.p.- e o.L.L.q q 3.d.= = = = = = d.d.",
"a.s.p.i.i.i.i.i.i.i.a.i.a.a.s.s.s.s.p.p.p.i.i.p.p.p.s.a.d.d.d.d.s.d.s.d.= - q e o.o.L.q q 3.- e o.L.L.q q 3.d.d.d.= = = = = d.d.",
"s.d.p.i.i.p.i.4.i.i.i.p.p.p.p.a.s.a.s.s.s.a.p.p.i.i.a.s.= - - = s.s.d.d.d.d.- q e o.o.L.q q e o.L.L.q q 3.d.d.- = - - * * - - = ",
"= d.s.p.p.p.a.s.p.i.i.i.i.p.s.s.s.p.p.p.s.p.p.p.i.p.s.d.= - - d.d.a.s.d.d.d.= - q e o.o.L.o.o.L.L.q q 3.s.s.d.d.= * * - - - - - ",
"d.d.d.d.k.d.d.= s.p.i.p.p.a.p.p.p.i.i.i.a.p.p.p.i.p.d.d.d.- = s.s.a.d.d.d.d.= = - q e o.o.o.L.L.q q 3.s.d.d.d.d.d.= = d.= - = = ",
"d.= = d.= d.d.= d.p.i.i.p.p.i.p.p.i.i.a.s.s.p.d.a.d.d.d.d.d.= s.s.s.s.s.d.= - = a.- q e o.L.L.q q 3.d.d.s.s.s.d.= = d.d.= d.d.d.",
"d.= = = = = = = = s.i.i.i.i.p.p.p.p.p.s.d.s.i.s.s.d.s.d.= d.= d.a.p.p.s.s.d.= s.s.- e o.L.L.q q 3.s.a.s.s.a.a.s.d.d.d.s.d.d.d.= ",
"d.d.= d.= d.= d.d.p.i.p.p.p.p.p.a.d.p.d.d.a.d.d.d.d.s.d.d.s.s.a.p.s.s.a.a.a.d.p.- e o.L.L.q q 3.p.s.a.d.d.s.a.d.d.d.s.a.s.a.s.= ",
"d.s.d.d.d.= = = = a.s.s.p.i.p.p.d.s.p.d.d.= - = d.d.d.s.a.p.p.p.i.p.s.s.s.s.s.- e o.L.L.q q 3.s.p.d.d.d.d.s.s.d.d.d.a.p.a.a.d.d.",
"d.d.d.d.d.s.d.s.s.p.p.p.i.i.a.a.s.p.p.d.d.d.= = d.s.d.s.p.i.p.i.i.i.p.p.p.p.- e o.L.L.q q 3.p.p.p.d.d.d.= = d.d.d.s.d.s.s.p.s.d.",
"s.d.s.d.d.d.a.p.p.p.p.i.i.p.a.s.a.p.a.= = = - = d.a.s.s.p.i.i.4.4.p.p.p.p.- e o.L.L.q q 3.i.i.p.s.s.d.d.= d.d.d.d.s.d.s.p.p.s.d.",
"s.s.d.d.d.s.p.p.a.p.a.p.p.s.s.s.s.s.s.d.= a.= d.p.p.p.i.i.4.4.i.4.i.p.p.- e o.L.L.q q 3.i.i.p.i.i.p.s.d.a.a.d.d.s.d.d.s.p.a.d.s.",
"d.d.d.d.s.a.a.p.p.p.p.a.p.s.p.a.p.a.d.d.= a.s.i.i.p.p.4.i.4.i.4.i.i.s.- e o.L.L.q q 3.a.p.p.i.i.i.s.d.d.d.s.a.d.s.s.d.d.a.s.s.s.",
"d.d.s.s.a.s.p.p.s.a.a.i.i.p.p.s.s.s.d.d.d.a.s.p.i.p.i.i.i.4.4.i.p.p.- e o.L.L.q q 3.s.s.a.s.p.i.i.i.p.d.d.p.s.d.d.d.= = d.d.s.s.",
"d.d.d.s.p.s.a.a.s.s.p.p.i.p.a.p.i.p.a.s.p.i.p.i.i.i.p.p.i.i.i.p.p.- e o.L.L.q q 3.a.p.p.s.s.s.p.i.i.i.d.d.s.d.- = d.= = d.s.d.d.",
"d.= d.p.a.s.d.d.d.s.d.s.s.p.p.p.p.s.s.a.a.i.a.i.i.i.p.p.i.p.a.a.- e o.L.L.q q 3.s.s.s.p.p.p.s.a.s.s.s.d.d.k.d.= s.d.= d.d.s.d.d.",
"d.s.a.p.s.d.d.= d.s.s.s.s.s.p.p.i.p.a.s.p.s.p.p.p.p.a.p.p.a.p.- e o.L.L.q q 3.p.p.s.s.p.a.p.s.d.s.s.a.a.s.d.= = d.d.s.d.d.s.s.p.",
"d.s.a.d.= = d.d.s.d.d.a.p.p.i.i.4.i.p.p.p.p.p.s.p.a.p.p.p.p.- e o.L.L.q q 3.p.p.p.s.p.p.p.a.s.s.d.a.a.s.= d.d.= = = a.d.= d.s.a.",
"s.d.s.d.= s.= d.s.d.s.p.i.p.p.i.p.i.p.s.s.p.p.p.p.p.a.p.p.- e o.L.L.q q 3.p.i.i.p.i.p.s.s.s.s.s.d.s.s.s.d.p.a.d.d.- - - = = = = ",
"s.s.d.d.d.d.s.d.s.d.a.p.i.i.p.p.p.p.p.p.s.p.p.a.p.p.p.i.- e o.L.L.q q 3.p.a.i.4.i.i.s.d.d.d.d.d.= s.d.= d.d.d.- - * - = = = d.d.",
"s.a.d.= = = d.= s.d.s.p.s.p.a.s.a.s.s.p.a.s.p.p.p.s.p.- e o.L.L.q q 3.s.p.p.i.i.i.p.a.= = d.a.s.d.= = = = = = - - * - = - = s.d.",
"p.p.d.= = a.p.d.d.s.s.a.s.d.s.d.s.p.p.p.s.d.a.s.s.d.- e o.L.L.q q 3.a.i.p.p.i.i.i.p.a.s.d.s.a.s.s.= = = - = d.- - = - = = = a.s.",
"s.a.d.= = d.s.d.d.= = d.= d.a.s.s.a.s.a.s.a.s.d.d.- e o.L.L.q q 3.a.a.p.s.p.i.4.p.d.s.s.d.= d.- - = d.= - = d.= - = d.d.= = a.a.",
"s.s.p.p.d.d.d.k.d.= d.d.d.a.s.a.a.s.a.d.d.a.s.= - e o.L.L.q q 3.s.a.s.s.s.p.a.p.s.d.s.d.= = = - - = d.= d.k.s.s.= d.s.d.= = s.d.",
"s.p.a.p.s.s.s.s.a.s.p.a.s.p.p.p.s.s.s.s.d.s.s.- e o.L.L.q q 3.i.p.p.s.s.a.p.a.s.d.= = = - = = - = = d.d.d.s.p.s.d.s.s.- = = d.s.",
"k.s.i.4.4.a.p.p.p.a.s.d.s.p.p.a.p.p.p.p.p.p.- e o.L.L.q q 3.p.p.s.a.s.a.p.a.s.s.d.= = d.d.d.d.- = s.a.a.d.s.a.a.d.d.s.d.d.s.d.a.",
"s.s.i.i.4.p.s.s.s.a.s.s.p.p.i.i.p.s.p.i.p.- e o.L.L.q q 3.s.s.s.s.a.s.s.s.s.s.s.d.d.s.a.s.a.a.= d.p.s.a.s.a.s.a.s.s.p.s.s.s.d.a.",
"p.a.p.p.i.p.p.a.s.s.p.p.p.a.p.p.s.s.p.p.- e o.L.L.q q 3.k.d.d.d.a.s.s.a.a.a.d.d.d.= d.s.d.s.= - = s.a.s.p.s.d.d.s.s.a.a.s.s.d.s.",
"a.s.a.p.s.s.s.a.s.a.a.i.p.p.p.p.p.a.s.- e o.L.L.q q 3.= = = = s.s.p.p.s.s.d.s.d.d.d.d.d.d.d.d.s.a.i.4.a.s.d.= = = = d.s.s.a.a.p.",
"= d.= d.s.s.d.a.s.s.p.i.i.p.p.a.p.s.- e o.L.L.q q 3.k.= d.a.s.p.a.a.s.s.= = = d.d.p.a.d.s.p.a.p.i.i.i.s.a.s.s.d.d.d.s.a.p.a.s.s.",
"d.s.= d.s.= d.d.s.a.p.i.a.a.p.p.p.- e o.L.L.q q 3.s.d.d.s.p.s.a.= d.s.d.d.d.d.d.d.a.a.= s.a.j.a.p.i.a.p.p.p.s.d.s.p.i.a.i.i.p.s.",
"d.a.d.s.s.= = s.= = d.i.i.i.p.d.- e o.L.L.q q 3.a.a.d.s.s.a.s.d.- = = = = d.= = d.d.d.= s.a.d.s.p.i.p.p.p.i.p.s.s.p.i.i.i.i.p.p.",
"a.p.s.d.= d.= d.= d.d.i.p.d.= - e o.L.L.q q 3.p.s.s.d.s.s.s.d.d.- = = = = d.s.= = = d.d.a.s.s.p.p.a.p.i.i.i.a.a.p.p.4.i.4.i.i.p.",
"= d.= - d.d.- - = d.d.d.d.= - e o.L.L.q q 3.4.p.p.s.a.s.s.a.d.d.- s.= d.d.= d.= d.d.d.s.a.s.d.s.p.p.s.i.s.i.p.s.p.i.3.4.4.4.4.4."
};
